<?xml version="1.0" encoding="UTF-8"?><svg id="icon" xmlns="http://www.w3.org/2000/svg" viewBox="0 0 360 360"><defs><style>.cls-1{fill:#cbd9ec;}.cls-2{fill:#3e659b;}.cls-3{fill:#fff;}.cls-4{fill:#1e4c8a;}</style></defs><rect id="background" class="cls-2" x="20.45" y="20.45" width="319.11" height="319.11" rx="53.68" ry="53.68"/><g id="file"><g id="File"><path class="cls-3" d="M230.22,138.69v100.83c0,9.08-7.36,16.44-16.44,16.44h-108c-9.07,0-16.43-7.36-16.43-16.44v-126.78c0-9.08,7.36-16.44,16.43-16.44h82.04l42.4,42.39Z"/></g><path id="corner" class="cls-1" d="M196.82,138.7h33.39l-42.39-42.4v33.4c0,4.97,4.03,9,9,9Z"/></g><path id="arrow" class="cls-4" d="M187.83,156.11c-5.17,0-9.32,4.36-8.98,9.6.31,4.78,4.5,8.4,9.29,8.4h50.12s-78.01,77.8-78.01,77.8c-3.55,3.54-3.74,9.53-.15,13.04,1.75,1.7,4.02,2.56,6.28,2.56s4.6-.88,6.35-2.63l78.3-78.08v52.09c0,4.79,3.62,8.98,8.4,9.29,5.24.34,9.6-3.81,9.6-8.98v-74.09c0-4.97-4.03-9-9-9h-72.2Z"/></svg>