<?xml version="1.0" encoding="UTF-8"?><svg id="activity-bar-off" xmlns="http://www.w3.org/2000/svg" viewBox="0 0 360 360"><defs><style>.cls-1{fill:#6b6e76;}</style></defs><g id="background"><path class="cls-1" d="M285.88,35.45c21.33,0,38.68,17.35,38.68,38.68v211.75c0,21.33-17.35,38.68-38.68,38.68H74.12c-21.33,0-38.68-17.35-38.68-38.68V74.12c0-21.33,17.35-38.68,38.68-38.68h211.75M285.88,20.45H74.12c-29.65,0-53.68,24.03-53.68,53.68v211.75c0,29.65,24.03,53.68,53.68,53.68h211.75c29.65,0,53.68-24.03,53.68-53.68V74.12c0-29.65-24.03-53.68-53.68-53.68h0Z"/></g><g id="file"><g id="File"><path class="cls-1" d="M185.75,101.3l39.47,39.46v98.76c0,6.31-5.13,11.44-11.44,11.44h-108c-6.3,0-11.43-5.13-11.43-11.44v-126.78c0-6.31,5.13-11.44,11.43-11.44h79.97M187.82,96.3h-82.04c-9.07,0-16.43,7.36-16.43,16.44v126.78c0,9.08,7.36,16.44,16.43,16.44h108c9.08,0,16.44-7.36,16.44-16.44v-100.83l-42.4-42.39h0Z"/></g><g id="corner"><path class="cls-1" d="M192.82,108.37l25.32,25.33h-21.32c-2.21,0-4-1.79-4-4v-21.33M187.82,96.3v33.4c0,4.97,4.03,9,9,9h33.39l-42.39-42.4h0Z"/></g></g><path id="arrow" class="cls-1" d="M187.83,156.11c-5.17,0-9.32,4.36-8.98,9.6.31,4.78,4.5,8.4,9.29,8.4h50.12s-78.01,77.8-78.01,77.8c-3.55,3.54-3.74,9.53-.15,13.04,1.75,1.7,4.02,2.56,6.28,2.56s4.6-.88,6.35-2.63l78.3-78.08v52.09c0,4.79,3.62,8.98,8.4,9.29,5.24.34,9.6-3.81,9.6-8.98v-74.09c0-4.97-4.03-9-9-9h-72.2Z"/></svg>